{"title":"The Last Exorcism 2010 720p BRRip x264 Feel-Free","uid":6061040,"size":1730124199,"categoryP":"video","categoryS":"hd___movies","magnet":"?xt=urn:btih:eb4f5401c4954f2c0370181c5efa0f3aa0f8047c&amp;dn=The+Last+Exorcism+2010+720p+BRRip+x264+Feel-Free&amp;tr=udp%3A%2F%2Ftracker.openbittorrent.com%3A80&amp;tr=udp%3A%2F%2Fopen.demonii.com%3A1337&amp;tr=udp%3A%2F%2Ftracker.coppersurfer.tk%3A6969&amp;tr=udp%3A%2F%2Fexodus.desync.com%3A6969","seeders":0,"leechers":1,"uploader":"neon","files":-1,"time":1293125292,"description":"Genre:Horror | Thriller\nLanguage: English\n &lt;a href=&quot; http://www.imdb.com/title/tt1320244/&quot; rel=&quot;nofollow&quot; target=&quot;_NEW&quot;&gt; http://www.imdb.com/title/tt1320244/&lt;/a&gt;\nSource:1080p.Bluray.x264-CBGB\nSubtitles:Romana\n\n\nFormat : Matroska\nFile size : 1.60 GiB\nDuration : 1h 27mn\nOverall bit rate : 2 622 Kbps\n\n\nVideo\nFormat settings, CABAC : Yes\nFormat settings, ReFrames : 4 frames\nCodec ID : V_MPEG4/ISO/AVC\nDuration : 1h 27mn\nBit rate : 2 185 Kbps\nNominal bit rate : 2 300 Kbps\nWidth : 1 280 pixels\nHeight : 720 pixels\nDisplay aspect ratio : 16:9\nFrame rate mode : Variable\nFrame rate : 23.976 fps\nColor space : YUV\nChroma subsampling : 4:2:0\nBit depth : 8 bits\nScan type : Progressive\nBits/(Pixel*Frame) : 0.099\nStream size : 1.34 GiB (83%)\nWriting library : x264\n\n\nAudio\nID : 2\nFormat : AC-3\nFormat/Info : Audio Coding 3\nMode extension : CM (complete main)\nCodec ID : A_AC3\nDuration : 1h 27mn\nBit rate mode : Constant\nBit rate : 384 Kbps\nChannel(s) : 6 channels\nChannel positions : Front: L C R, Side: L R, LFE\nSampling rate : 48.0 KHz\nBit depth : 16 bits\nVideo delay : -1mn 5s\nStream size : 241 MiB (15%)\nLanguage : English\n\n\n\nPlot\nA troubled evangelical minister agrees to let his last exorcism be filmed by a documentary crew\n\n","torrent":{"xt":"urn:btih:eb4f5401c4954f2c0370181c5efa0f3aa0f8047c","amp;dn":"The+Last+Exorcism+2010+720p+BRRip+x264+Feel-Free","amp;tr":["udp%3A%2F%2Ftracker.openbittorrent.com%3A80","udp%3A%2F%2Fopen.demonii.com%3A1337","udp%3A%2F%2Ftracker.coppersurfer.tk%3A6969","udp%3A%2F%2Fexodus.desync.com%3A6969"],"infoHash":"eb4f5401c4954f2c0370181c5efa0f3aa0f8047c","infoHashBuffer":{"type":"Buffer","data":[235,79,84,1,196,149,79,44,3,112,24,28,94,250,15,58,160,248,4,124]},"announce":[],"urlList":[]}}